    <svg width="0" height="0" class="hidden">
        <symbol xmlns="http://www.w3.org/2000/svg" aria-hidden="true" viewBox="0 0 24 24" id="icon-user">
            <path
                d="M12 2C6.579 2 2 6.579 2 12s4.579 10 10 10 10-4.579 10-10S17.421 2 12 2zm0 5c1.727 0 3 1.272 3 3s-1.273 3-3 3c-1.726 0-3-1.272-3-3s1.274-3 3-3zm-5.106 9.772c.897-1.32 2.393-2.2 4.106-2.2h2c1.714 0 3.209.88 4.106 2.2C15.828 18.14 14.015 19 12 19s-3.828-.86-5.106-2.228z">
            </path>
        </symbol>
        <symbol xmlns="http://www.w3.org/2000/svg" aria-hidden="true" viewBox="0 0 24 24" id="icon-comment">
            <path d="M7 7h10v2H7zm0 4h7v2H7z"></path>
            <path
                d="M20 2H4c-1.103 0-2 .897-2 2v18l5.333-4H20c1.103 0 2-.897 2-2V4c0-1.103-.897-2-2-2zm0 14H6.667L4 18V4h16v12z">
            </path>
        </symbol>
        <symbol xmlns="http://www.w3.org/2000/svg" aria-hidden="true" viewBox="0 0 24 24" id="icon-group">
            <path
                d="M9.5 12c2.206 0 4-1.794 4-4s-1.794-4-4-4-4 1.794-4 4 1.794 4 4 4zm1.5 1H8c-3.309 0-6 2.691-6 6v1h15v-1c0-3.309-2.691-6-6-6z">
            </path>
            <path
                d="M16.604 11.048a5.67 5.67 0 0 0 .751-3.44c-.179-1.784-1.175-3.361-2.803-4.44l-1.105 1.666c1.119.742 1.8 1.799 1.918 2.974a3.693 3.693 0 0 1-1.072 2.986l-1.192 1.192 1.618.475C18.951 13.701 19 17.957 19 18h2c0-1.789-.956-5.285-4.396-6.952z">
            </path>
        </symbol>
        <symbol xmlns="http://www.w3.org/2000/svg" aria-hidden="true" viewBox="0 0 24 24" id="icon-key">
            <path
                d="M3.433 17.325 3.079 19.8a1 1 0 0 0 1.131 1.131l2.475-.354C7.06 20.524 8 18 8 18s.472.405.665.466c.412.13.813-.274.948-.684L10 16.01s.577.292.786.335c.266.055.524-.109.707-.293a.988.988 0 0 0 .241-.391L12 14.01s.675.187.906.214c.263.03.519-.104.707-.293l1.138-1.137a5.502 5.502 0 0 0 5.581-1.338 5.507 5.507 0 0 0 0-7.778 5.507 5.507 0 0 0-7.778 0 5.5 5.5 0 0 0-1.338 5.581l-7.501 7.5a.994.994 0 0 0-.282.566zM18.504 5.506a2.919 2.919 0 0 1 0 4.122l-4.122-4.122a2.919 2.919 0 0 1 4.122 0z">
            </path>
        </symbol>
        <symbol xmlns="http://www.w3.org/2000/svg" aria-hidden="true" viewBox="0 0 24 24" id="icon-network">
            <path
                d="M19 3c-1.654 0-3 1.346-3 3 0 .502.136.968.354 1.385l-1.116 1.302A3.976 3.976 0 0 0 13 8c-.739 0-1.425.216-2.02.566L9.566 7.152A3.449 3.449 0 0 0 10 5.5C10 3.57 8.43 2 6.5 2S3 3.57 3 5.5 4.57 9 6.5 9c.601 0 1.158-.166 1.652-.434L9.566 9.98A3.972 3.972 0 0 0 9 12c0 .997.38 1.899.985 2.601l-1.692 1.692.025.025A2.962 2.962 0 0 0 7 16c-1.654 0-3 1.346-3 3s1.346 3 3 3 3-1.346 3-3c0-.476-.121-.919-.318-1.318l.025.025 1.954-1.954c.421.15.867.247 1.339.247 2.206 0 4-1.794 4-4a3.96 3.96 0 0 0-.439-1.785l1.253-1.462c.364.158.764.247 1.186.247 1.654 0 3-1.346 3-3s-1.346-3-3-3zM7 20a1 1 0 1 1 0-2 1 1 0 0 1 0 2zM5 5.5C5 4.673 5.673 4 6.5 4S8 4.673 8 5.5 7.327 7 6.5 7 5 6.327 5 5.5zm8 8.5c-1.103 0-2-.897-2-2s.897-2 2-2 2 .897 2 2-.897 2-2 2zm6-7a1 1 0 1 1 0-2 1 1 0 0 1 0 2z">
            </path>
        </symbol>
        <symbol xmlns="http://www.w3.org/2000/svg" aria-hidden="true" viewBox="0 0 24 24" id="icon-piechart">
            <path
                d="M13 2.051V11h8.949c-.47-4.717-4.232-8.479-8.949-8.949zm4.969 17.953c2.189-1.637 3.694-4.14 3.98-7.004h-8.183l4.203 7.004z">
            </path>
            <path
                d="M11 12V2.051C5.954 2.555 2 6.824 2 12c0 5.514 4.486 10 10 10a9.93 9.93 0 0 0 4.255-.964s-5.253-8.915-5.254-9.031A.02.02 0 0 0 11 12z">
            </path>
        </symbol>
        <symbol xmlns="http://www.w3.org/2000/svg" aria-hidden="true" viewBox="0 0 24 24" id="icon-pound">
            <path
                d="m5.553 19.105.764 1.843C7.498 20.555 9.422 20 10 20c.838 0 1.462.208 2.184.448.775.259 1.654.552 2.816.552 1.177 0 3.078-.921 3.447-1.105l-.895-1.789c-.721.36-2.031.894-2.552.894-.838 0-1.462-.208-2.184-.448C12.041 18.293 11.162 18 10 18c-.229 0-.526.037-.857.099C9.702 16.95 10 15.561 10 14h3v-2H9.626c-.042-.107-.084-.216-.125-.317C9.243 11.052 9 10.455 9 9c0-1.369.521-3 3-3 2.224 0 3.021 2.227 3.052 2.316l1.896-.633C16.898 7.533 15.679 4 12 4 8.313 4 7 6.583 7 9c0 1.491.234 2.35.478 3H5v2h3c0 2.467-.892 4.328-2.447 5.105z">
            </path>
        </symbol>
        <symbol xmlns="http://www.w3.org/2000/svg" aria-hidden="true" viewBox="0 0 24 24" id="icon-logo">
         <path style="fill: #dadbf1;" d="M12 2C6.579 2 2 6.579 2 12s4.579 10 10 10 10-4.579 10-10S17.421 2 12 2zm0 18c-4.337 0-8-3.663-8-8s3.663-8 8-8 8 3.663 8 8-3.663 8-8 8z"></path>
            <path style="fill: #4C5FD5;" d="M12 6c-3.309 0-6 2.691-6 6s2.691 6 6 6 6-2.691 6-6-2.691-6-6-6zm0 10c-2.206 0-4-1.794-4-4s1.794-4 4-4 4 1.794 4 4-1.794 4-4 4z"></path>
            <path style="fill: #dadbf1;" d="M12 10c-1.081 0-2 .919-2 2s.919 2 2 2 2-.919 2-2-.919-2-2-2z"></path>
        </symbol>
        <symbol xmlns="http://www.w3.org/2000/svg" viewBox="0 0 24 24" id="icon-search">
            <path d="M10 18a7.952 7.952 0 0 0 4.897-1.688l4.396 4.396 1.414-1.414-4.396-4.396A7.952 7.952 0 0 0 18 10c0-4.411-3.589-8-8-8s-8 3.589-8 8 3.589 8 8 8zm0-14c3.309 0 6 2.691 6 6s-2.691 6-6 6-6-2.691-6-6 2.691-6 6-6z"></path>
            <path d="M11.412 8.586c.379.38.588.882.588 1.414h2a3.977 3.977 0 0 0-1.174-2.828c-1.514-1.512-4.139-1.512-5.652 0l1.412 1.416c.76-.758 2.07-.756 2.826-.002z"></path>
        </symbol>
    </svg>





